<svg width="11" height="17" viewBox="0 0 11 17" fill="none" xmlns="http://www.w3.org/2000/svg">
<path d="M4.671 16.782V14.703H6.273V16.782H4.671ZM4.671 2.337V0.248999H6.273V2.337H4.671ZM5.598 15.27C4.722 15.27 3.933 15.114 3.231 14.802C2.535 14.484 1.962 14.037 1.512 13.461C1.062 12.879 0.768 12.195 0.63 11.409L2.205 11.148C2.397 11.946 2.802 12.579 3.42 13.047C4.044 13.515 4.794 13.749 5.67 13.749C6.552 13.749 7.266 13.536 7.812 13.11C8.358 12.684 8.631 12.135 8.631 11.463C8.631 10.971 8.484 10.575 8.19 10.275C7.902 9.975 7.416 9.72 6.732 9.51L3.771 8.592C2.001 8.04 1.116 6.984 1.116 5.424C1.116 4.692 1.293 4.053 1.647 3.507C2.007 2.955 2.508 2.529 3.15 2.229C3.798 1.923 4.551 1.773 5.409 1.779C6.243 1.785 6.987 1.941 7.641 2.247C8.295 2.547 8.835 2.979 9.261 3.543C9.693 4.107 9.984 4.782 10.134 5.568L8.514 5.865C8.43 5.355 8.244 4.908 7.956 4.524C7.674 4.14 7.314 3.843 6.876 3.633C6.438 3.417 5.946 3.306 5.4 3.3C4.89 3.294 4.431 3.378 4.023 3.552C3.621 3.726 3.303 3.969 3.069 4.281C2.835 4.593 2.718 4.95 2.718 5.352C2.718 5.79 2.88 6.162 3.204 6.468C3.534 6.768 4.05 7.026 4.752 7.242L7.182 7.962C8.25 8.28 9.021 8.709 9.495 9.249C9.969 9.783 10.206 10.497 10.206 11.391C10.206 12.165 10.014 12.843 9.63 13.425C9.252 14.007 8.715 14.46 8.019 14.784C7.329 15.108 6.522 15.27 5.598 15.27Z" fill="#121417"/>
</svg>
